<svg width="50" height="50" viewBox="0 0 50 50" fill="none" xmlns="http://www.w3.org/2000/svg">
<circle cx="25" cy="25" r="24.5" stroke="#ffffff"/>
<g clip-path="url(#clip0)">
<path d="M16.515 27.4212H19.6625V39.0613C19.6625 39.5788 20.0813 39.9988 20.6 39.9988L25.6088 40C26.1275 40 26.5463 39.5788 26.5463 39.0625V27.4225H29.53C30.0025 27.4225 30.4013 27.07 30.46 26.6012L31.0825 21.6012C31.1525 21.0437 30.7163 20.5475 30.1525 20.5475H26.5463C26.6875 17.4587 26.0025 16.545 28.0113 16.545C29.3713 16.3825 31.5163 17.0712 31.5163 15.6075V11.1363C31.5163 10.6675 31.17 10.2712 30.7063 10.2075C30.3138 10.1537 28.7625 10 26.8388 10C18.0763 10 19.88 19.715 19.6638 20.5463H16.515C15.9975 20.5463 15.5775 20.9663 15.5775 21.4838V26.4837C15.5775 27.0013 15.9975 27.4212 16.515 27.4212ZM17.4525 22.4225H20.6C21.1175 22.4225 21.5375 22.0025 21.5375 21.485V17.5463C21.5375 13.9425 23.4688 11.8763 26.8375 11.8763C27.935 11.8763 28.945 11.93 29.64 11.985V14.6712C29.1375 14.9275 24.67 13.5662 24.67 18.0425V21.4862C24.67 22.0037 25.09 22.4237 25.6075 22.4237H29.09L28.7 25.5487H25.6075C25.09 25.5487 24.67 25.9688 24.67 26.4862V38.125H21.5388V26.485C21.5388 25.9675 21.1188 25.5475 20.6013 25.5475H17.4525V22.4225Z" fill="#ffffff"/>
</g>
<defs>
<clipPath id="clip0">
<rect width="30" height="30" fill="white" transform="translate(8 10)"/>
</clipPath>
</defs>
</svg>
