<svg width="33" height="31" viewBox="0 0 33 31" fill="none" xmlns="http://www.w3.org/2000/svg">
<path d="M16.5037 7.55199C11.8215 7.55199 8.04479 11.1006 8.04479 15.5C8.04479 19.8994 11.8215 23.448 16.5037 23.448C21.1859 23.448 24.9626 19.8994 24.9626 15.5C24.9626 11.1006 21.1859 7.55199 16.5037 7.55199ZM16.5037 20.6672C13.4779 20.6672 11.0043 18.3499 11.0043 15.5C11.0043 12.6501 13.4706 10.3328 16.5037 10.3328C19.5368 10.3328 22.0031 12.6501 22.0031 15.5C22.0031 18.3499 19.5294 20.6672 16.5037 20.6672ZM27.2816 7.22688C27.2816 8.25756 26.3982 9.08072 25.3086 9.08072C24.2117 9.08072 23.3356 8.25064 23.3356 7.22688C23.3356 6.20311 24.219 5.37303 25.3086 5.37303C26.3982 5.37303 27.2816 6.20311 27.2816 7.22688ZM32.8841 9.10839C32.7589 6.62507 32.1552 4.42536 30.219 2.61302C28.2902 0.80068 25.9491 0.23346 23.3061 0.108948C20.5822 -0.036316 12.4178 -0.036316 9.69387 0.108948C7.05828 0.226542 4.71718 0.793763 2.78098 2.6061C0.844785 4.41844 0.248466 6.61815 0.115951 9.10147C-0.0386503 11.6609 -0.0386503 19.3322 0.115951 21.8916C0.241104 24.3749 0.844785 26.5746 2.78098 28.387C4.71718 30.1993 7.05092 30.7665 9.69387 30.8911C12.4178 31.0363 20.5822 31.0363 23.3061 30.8911C25.9491 30.7735 28.2902 30.2062 30.219 28.387C32.1479 26.5746 32.7515 24.3749 32.8841 21.8916C33.0387 19.3322 33.0387 11.6678 32.8841 9.10839ZM29.365 24.6378C28.7908 25.9936 27.6791 27.0381 26.2288 27.5846C24.0571 28.3939 18.9037 28.2071 16.5037 28.2071C14.1037 28.2071 8.94294 28.387 6.77853 27.5846C5.33558 27.045 4.22393 26.0005 3.64233 24.6378C2.78098 22.5972 2.97975 17.755 2.97975 15.5C2.97975 13.245 2.78834 8.39591 3.64233 6.36221C4.21656 5.00642 5.32822 3.9619 6.77853 3.41543C8.95031 2.6061 14.1037 2.79287 16.5037 2.79287C18.9037 2.79287 24.0644 2.61302 26.2288 3.41543C27.6718 3.95498 28.7834 4.9995 29.365 6.36221C30.2264 8.40282 30.0276 13.245 30.0276 15.5C30.0276 17.755 30.2264 22.6041 29.365 24.6378Z" fill="white"/>
</svg>
