<svg width="31" height="31" viewBox="0 0 31 31" fill="none" xmlns="http://www.w3.org/2000/svg">
<path d="M26.3569 4.50469C23.4576 1.59844 19.5964 0 15.4931 0C7.02344 0 0.131473 6.89196 0.131473 15.3616C0.131473 18.0672 0.837277 20.7105 2.17969 23.0424L0 31L8.14442 28.8618C10.3864 30.0866 12.9121 30.7301 15.4862 30.7301H15.4931C23.9558 30.7301 31 23.8382 31 15.3685C31 11.2652 29.2562 7.41094 26.3569 4.50469ZM15.4931 28.1422C13.1958 28.1422 10.9469 27.5263 8.98862 26.3638L8.525 26.0871L3.69509 27.3533L4.98214 22.6411L4.67768 22.1567C3.39754 20.1223 2.72634 17.7766 2.72634 15.3616C2.72634 8.32433 8.4558 2.59487 15.5 2.59487C18.9114 2.59487 22.1152 3.92344 24.5232 6.33839C26.9312 8.75335 28.4121 11.9571 28.4051 15.3685C28.4051 22.4127 22.5304 28.1422 15.4931 28.1422ZM22.4958 18.5792C22.1152 18.3855 20.2261 17.4583 19.8732 17.3337C19.5203 17.2022 19.2643 17.14 19.0083 17.5275C18.7522 17.915 18.0187 18.773 17.7904 19.0359C17.569 19.292 17.3406 19.3266 16.96 19.1328C14.7042 18.0049 13.2234 17.1192 11.7357 14.5658C11.3413 13.8877 12.1301 13.9362 12.8636 12.4692C12.9882 12.2132 12.9259 11.9917 12.829 11.798C12.7321 11.6042 11.9641 9.71518 11.6458 8.9471C11.3344 8.19978 11.0161 8.30357 10.7808 8.28973C10.5594 8.27589 10.3033 8.27589 10.0473 8.27589C9.79129 8.27589 9.37611 8.37277 9.02321 8.75335C8.67031 9.14085 7.6808 10.0681 7.6808 11.9571C7.6808 13.8462 9.05781 15.673 9.24464 15.929C9.43839 16.185 11.9502 20.06 15.8045 21.7277C18.2402 22.7795 19.1951 22.8694 20.4129 22.6895C21.1533 22.5788 22.6826 21.7623 23.0009 20.8627C23.3192 19.9632 23.3192 19.1951 23.2223 19.0359C23.1324 18.8629 22.8763 18.7661 22.4958 18.5792Z" fill="white"/>
</svg>
